<svg width="1615" height="1615" viewBox="0 0 1615 1615" fill="none" xmlns="http://www.w3.org/2000/svg">
<rect width="1615" height="1615" rx="807.5" fill="white"/>
<path d="M559.305 1126.72C593.26 1124.98 625.498 1117.66 656.018 1104.74C691.286 1089.82 722.254 1068.59 748.92 1041.04C776.447 1013.2 797.952 979.481 813.435 939.879C814.691 936.669 815.895 933.429 817.048 930.16V934.972C817.048 974.861 815.185 1003.13 811.457 1019.77C807.729 1036.13 800.848 1048.33 790.812 1056.36C786.224 1060.38 774.755 1064.97 756.404 1070.14C738.053 1075.01 725.006 1077.74 717.264 1078.31V1108.88H967.584V1078.31C960.99 1078.03 947.37 1075.16 926.725 1069.7C906.08 1064.25 892.46 1058.37 885.865 1052.06C876.689 1044.02 869.808 1030.53 865.22 1011.59C860.919 992.653 858.768 965.534 858.768 930.237V832.743L693.53 994.955C691.307 999.059 688.982 1003.08 686.555 1007.03C671.071 1032.86 651 1052.95 626.34 1067.29C621.858 1069.9 617.277 1072.27 612.596 1074.41L559.305 1126.72Z" fill="#040404"/>
<path d="M729.282 870.655C731.478 850.821 732.576 829.846 732.576 807.729C732.576 765.831 728.418 727.377 720.103 692.367C712.074 657.356 700.175 627.511 684.404 602.832C668.634 578.439 648.849 559.499 625.05 546.012C601.251 532.237 574.011 525.35 543.331 525.35C508.922 525.35 479.675 533.241 455.589 549.025C431.504 564.808 411.862 585.9 396.665 612.302C382.328 637.555 371.576 667.113 364.408 700.976C357.526 734.838 354.085 770.423 354.085 807.729C354.085 849.053 357.813 886.359 365.268 919.648C372.723 952.936 384.479 982.494 400.536 1008.32C416.02 1033.57 435.518 1053.38 459.03 1067.72C473.763 1076.54 490.297 1082.59 508.632 1085.88L474.151 1119.51C457.338 1115.63 441.115 1110.28 425.482 1103.45C389.64 1087.38 358.816 1065.14 333.01 1036.73C307.204 1008.9 286.846 975.176 271.935 935.574C257.312 895.685 250 853.07 250 807.729C250 758.083 257.742 713.889 273.226 675.148C288.709 636.12 310.071 602.401 337.311 573.991C364.264 545.868 395.518 524.345 431.074 509.423C466.915 494.5 504.334 487.039 543.331 487.039C583.76 487.039 621.896 494.644 657.738 509.853C693.58 525.063 724.547 546.442 750.64 573.991C777.593 602.114 798.669 636.12 813.866 676.009C814.966 678.878 816.027 681.769 817.048 684.683V634.083C817.048 620.882 814.754 607.682 810.167 594.481C805.579 581.28 799.414 571.093 791.672 563.919C781.35 554.448 767.3 546.413 749.522 539.813C732.031 532.926 717.838 529.195 706.942 528.621V498.059H881.134L977.379 628.663L914.308 690.183L858.768 615.143V744.355L729.282 870.655Z" fill="#040404"/>
<path d="M952.047 741.173L1228.66 1114.9H1266.08V667.658C1266.08 636.379 1267.8 610.551 1271.24 590.176C1274.97 569.801 1281.99 556.027 1292.31 548.853C1299.48 544.261 1311.38 539.813 1328.01 535.508C1344.64 531.204 1356.97 528.908 1365 528.621V498.059H1199.7L1159.42 537.599C1177.1 542.648 1189.85 547.834 1197.69 553.157C1206.29 559.47 1212.89 572.241 1217.47 591.468C1222.06 610.408 1224.36 637.67 1224.36 673.254V963.812L1014.85 679.517L952.047 741.173Z" fill="#040404"/>
<path d="M314.265 1300L1138.2 491.352L1360.25 314L551.06 1112.06L314.265 1300Z" fill="#040404"/>
<path d="M403.048 1221.9L1158.93 487.994L1286.65 377.797L547.838 1092.97L403.048 1221.9Z" fill="#040404"/>
</svg>
