<svg width="170" height="43" viewBox="0 0 170 43" fill="none" xmlns="http://www.w3.org/2000/svg">
<path d="M26.1152 4.45624C27.5212 5.89754 28.6205 7.64032 29.4132 9.68461C30.206 11.7142 30.6023 13.9644 30.6023 16.4352C30.6023 18.9206 30.1985 21.1782 29.3908 23.2078C28.5831 25.2373 27.4613 26.9654 26.0254 28.392C24.6344 29.8039 23.0191 30.8922 21.1793 31.657C19.3396 32.4217 17.3802 32.8041 15.3012 32.8041C13.0875 32.8041 11.0384 32.3997 9.15378 31.5908C7.28413 30.7672 5.67624 29.6274 4.3301 28.1714C2.98395 26.7448 1.92199 25.0167 1.14422 22.9872C0.381407 20.9429 0 18.7589 0 16.4352C0 13.8908 0.403843 11.6259 1.21153 9.64048C2.01922 7.64032 3.13352 5.91224 4.55445 4.45624C5.96043 3.01495 7.59075 1.91192 9.44544 1.14715C11.3151 0.382384 13.267 0 15.3012 0C17.4101 0 19.3994 0.389737 21.2691 1.16921C23.1387 1.94869 24.7541 3.04436 26.1152 4.45624ZM22.7723 26.6492C23.6099 25.3109 24.2156 23.796 24.5896 22.1047C24.9784 20.4134 25.1729 18.5236 25.1729 16.4352C25.1729 14.2879 24.956 12.3172 24.5222 10.5229C24.1034 8.72865 23.4827 7.19911 22.6601 5.9343C21.8374 4.6842 20.8054 3.71354 19.564 3.0223C18.3225 2.31636 16.9016 1.96339 15.3012 1.96339C13.5063 1.96339 11.9807 2.36784 10.7243 3.17673C9.46788 3.98562 8.44331 5.06659 7.65058 6.41964C6.90273 7.71386 6.34183 9.22869 5.9679 10.9641C5.60893 12.6996 5.42945 14.5232 5.42945 16.4352C5.42945 18.553 5.62389 20.4649 6.01278 22.1709C6.40166 23.8769 7.0149 25.3918 7.8525 26.7154C8.66019 28.0096 9.67728 29.0244 10.9038 29.7598C12.1303 30.4804 13.5961 30.8407 15.3012 30.8407C16.9016 30.8407 18.3449 30.4731 19.6313 29.7377C20.9176 29.0023 21.9646 27.9728 22.7723 26.6492Z" fill="#F1F1F1"/>
<path d="M70.1969 32.0541H61.6265C59.7269 29.1274 58.0068 26.5977 56.4662 24.4652C54.9406 22.3327 53.2804 20.134 51.4855 17.8691H48.2323V27.7964C48.2323 28.3111 48.3146 28.767 48.4791 29.1641C48.6436 29.5465 48.9951 29.8406 49.5336 30.0465C49.8028 30.1495 50.274 30.2451 50.947 30.3333C51.6201 30.4216 52.1885 30.4731 52.6522 30.4878V32.0541H39.1907V30.4878C39.5497 30.4583 40.0657 30.4069 40.7388 30.3333C41.4268 30.2598 41.9055 30.1642 42.1747 30.0465C42.6234 29.8554 42.945 29.5759 43.1394 29.2082C43.3488 28.8406 43.4535 28.3699 43.4535 27.7964V5.16218C43.4535 4.64743 43.3787 4.19152 43.2292 3.79442C43.0796 3.39733 42.7281 3.09584 42.1747 2.88994C41.8008 2.75758 41.3146 2.63992 40.7164 2.53697C40.1181 2.41931 39.6095 2.34578 39.1907 2.31636V0.750061H53.8861C55.2323 0.750061 56.4962 0.889778 57.6778 1.16921C58.8594 1.43394 59.9288 1.8678 60.8861 2.47079C61.8134 3.05907 62.5538 3.83119 63.1072 4.78715C63.6606 5.7284 63.9373 6.8682 63.9373 8.20655C63.9373 9.41253 63.7504 10.4788 63.3764 11.4053C63.0025 12.3319 62.4491 13.1334 61.7162 13.8099C61.0431 14.4423 60.2354 14.9939 59.2931 15.4645C58.3508 15.9204 57.3113 16.3101 56.1746 16.6337C57.7451 18.678 59.0463 20.3987 60.0784 21.7959C61.1254 23.193 62.4042 24.8917 63.9149 26.8919C64.573 27.7743 65.1638 28.4288 65.6873 28.8553C66.2258 29.2671 66.7568 29.6053 67.2803 29.8701C67.6691 30.0613 68.1553 30.2083 68.7386 30.3113C69.3219 30.4142 69.808 30.4731 70.1969 30.4878V32.0541ZM58.3957 8.71394C58.3957 6.81673 57.8423 5.31661 56.7355 4.21358C55.6286 3.09584 54.0656 2.53697 52.0464 2.53697H48.2323V15.9719H51.1714C53.2355 15.9719 54.9556 15.3248 56.3316 14.0305C57.7077 12.7216 58.3957 10.9494 58.3957 8.71394Z" fill="#F1F1F1"/>
<path d="M89.9583 32.0541H75.6219V30.4878C76.0257 30.4583 76.609 30.4142 77.3718 30.3554C78.1347 30.2966 78.6731 30.2083 78.9872 30.0907C79.4808 29.8995 79.8398 29.6421 80.0641 29.3185C80.2885 28.9803 80.4007 28.517 80.4007 27.9287V5.25042C80.4007 4.73568 80.3184 4.30917 80.1539 3.97091C79.9894 3.61794 79.6005 3.3238 78.9872 3.08849C78.5385 2.912 77.9701 2.75022 77.2821 2.60315C76.609 2.44137 76.0556 2.34578 75.6219 2.31636V0.750061H89.9583V2.31636C89.4946 2.33107 88.9412 2.3899 88.2981 2.49285C87.6549 2.58109 87.094 2.69875 86.6154 2.84582C86.047 3.0223 85.6656 3.30909 85.4711 3.70618C85.2767 4.10327 85.1795 4.54448 85.1795 5.02982V27.6861C85.1795 28.1714 85.2842 28.6053 85.4936 28.9876C85.7179 29.3553 86.0919 29.6495 86.6154 29.8701C86.9295 29.9877 87.438 30.1201 88.141 30.2672C88.8589 30.3995 89.4647 30.4731 89.9583 30.4878V32.0541Z" fill="#F1F1F1"/>
<path d="M124.258 4.45624C125.664 5.89754 126.763 7.64032 127.556 9.68461C128.349 11.7142 128.745 13.9644 128.745 16.4352C128.745 18.9206 128.341 21.1782 127.534 23.2078C126.726 25.2373 125.604 26.9654 124.168 28.392C122.777 29.8039 121.162 30.8922 119.322 31.657C117.482 32.4217 115.523 32.8041 113.444 32.8041C111.23 32.8041 109.181 32.3997 107.297 31.5908C105.427 30.7672 103.819 29.6274 102.473 28.1714C101.127 26.7448 100.065 25.0167 99.2871 22.9872C98.5243 20.9429 98.1429 18.7589 98.1429 16.4352C98.1429 13.8908 98.5467 11.6259 99.3544 9.64048C100.162 7.64032 101.276 5.91224 102.697 4.45624C104.103 3.01495 105.734 1.91192 107.588 1.14715C109.458 0.382384 111.41 0 113.444 0C115.553 0 117.542 0.389737 119.412 1.16921C121.282 1.94869 122.897 3.04436 124.258 4.45624ZM120.915 26.6492C121.753 25.3109 122.358 23.796 122.732 22.1047C123.121 20.4134 123.316 18.5236 123.316 16.4352C123.316 14.2879 123.099 12.3172 122.665 10.5229C122.246 8.72865 121.626 7.19911 120.803 5.9343C119.98 4.6842 118.948 3.71354 117.707 3.0223C116.465 2.31636 115.044 1.96339 113.444 1.96339C111.649 1.96339 110.124 2.36784 108.867 3.17673C107.611 3.98562 106.586 5.06659 105.793 6.41964C105.046 7.71386 104.485 9.22869 104.111 10.9641C103.752 12.6996 103.572 14.5232 103.572 16.4352C103.572 18.553 103.767 20.4649 104.156 22.1709C104.545 23.8769 105.158 25.3918 105.995 26.7154C106.803 28.0096 107.82 29.0244 109.047 29.7598C110.273 30.4804 111.739 30.8407 113.444 30.8407C115.044 30.8407 116.488 30.4731 117.774 29.7377C119.06 29.0023 120.107 27.9728 120.915 26.6492Z" fill="#F1F1F1"/>
<path d="M170 2.31636C169.581 2.33107 168.938 2.44873 168.071 2.66933C167.203 2.88994 166.582 3.1179 166.208 3.35321C165.67 3.72089 165.303 4.42683 165.109 5.47103C164.93 6.51523 164.84 7.83887 164.84 9.44194V32.3629H162.888L143.593 6.75055V22.8989C143.593 24.7079 143.705 26.0977 143.93 27.0684C144.169 28.039 144.528 28.7303 145.007 29.1421C145.351 29.4656 146.061 29.7671 147.138 30.0465C148.215 30.326 148.925 30.4731 149.269 30.4878V32.0541H136.212V30.4878C136.616 30.4583 137.296 30.3186 138.253 30.0686C139.211 29.8039 139.809 29.5686 140.048 29.3627C140.572 28.9509 140.931 28.3258 141.125 27.4875C141.32 26.6345 141.417 25.1859 141.417 23.1416V7.72121C141.417 7.04469 141.297 6.36816 141.058 5.69164C140.819 5.01511 140.497 4.49301 140.093 4.12533C139.555 3.64 138.822 3.2282 137.894 2.88994C136.982 2.53697 136.242 2.34578 135.673 2.31636V0.750061H144.76L162.664 24.6196V9.72873C162.664 7.90505 162.544 6.50788 162.305 5.53721C162.065 4.55184 161.721 3.89737 161.273 3.57382C160.854 3.29438 160.166 3.0223 159.208 2.75758C158.266 2.49285 157.548 2.34578 157.055 2.31636V0.750061H170V2.31636Z" fill="#F1F1F1"/>
<path d="M1.76358 40.7673C1.74971 40.6387 1.69127 40.5385 1.58826 40.4669C1.48624 40.3952 1.35351 40.3594 1.19008 40.3594C1.07518 40.3594 0.97663 40.3765 0.894419 40.4109C0.812207 40.4453 0.749311 40.4919 0.705729 40.5508C0.662147 40.6097 0.639861 40.677 0.63887 40.7526C0.63887 40.8154 0.653233 40.8699 0.681957 40.9161C0.711672 40.9622 0.751787 41.0015 0.802302 41.0339C0.852818 41.0653 0.908781 41.0918 0.970192 41.1134C1.0316 41.135 1.09351 41.1532 1.15591 41.1679L1.44117 41.2386C1.55607 41.2651 1.66651 41.3009 1.77249 41.3461C1.87947 41.3913 1.97505 41.4482 2.05924 41.5169C2.14443 41.5857 2.21178 41.6686 2.2613 41.7658C2.31083 41.863 2.33559 41.9769 2.33559 42.1075C2.33559 42.2842 2.29003 42.4399 2.1989 42.5744C2.10778 42.7079 1.97604 42.8125 1.80369 42.8881C1.63234 42.9627 1.42483 43 1.18117 43C0.944439 43 0.738911 42.9637 0.564583 42.891C0.391246 42.8184 0.255548 42.7123 0.157489 42.5729C0.0604203 42.4335 0.00792398 42.2636 0 42.0633H0.542297C0.550221 42.1684 0.582907 42.2558 0.640356 42.3255C0.697805 42.3952 0.772588 42.4472 0.864704 42.4816C0.95781 42.516 1.06181 42.5331 1.17671 42.5331C1.29656 42.5331 1.40155 42.5155 1.49169 42.4801C1.58281 42.4438 1.65413 42.3937 1.70564 42.3299C1.75714 42.2651 1.78339 42.1895 1.78438 42.1031C1.78339 42.0245 1.76011 41.9597 1.71455 41.9087C1.66899 41.8567 1.6051 41.8135 1.52289 41.7791C1.44167 41.7437 1.34658 41.7123 1.23763 41.6848L0.891447 41.5965C0.640851 41.5326 0.442752 41.4359 0.297149 41.3063C0.152536 41.1757 0.0802303 41.0025 0.0802303 40.7864C0.0802303 40.6087 0.128765 40.4531 0.225833 40.3196C0.323892 40.1861 0.457114 40.0825 0.625499 40.0088C0.793883 39.9342 0.984554 39.8969 1.19751 39.8969C1.41344 39.8969 1.60262 39.9342 1.76507 40.0088C1.9285 40.0825 2.05677 40.1851 2.14987 40.3166C2.24298 40.4472 2.29102 40.5974 2.29399 40.7673H1.76358Z" fill="#F1F1F1"/>
<path d="M6.04037 40.3962V39.9381H8.46808V40.3962H7.5276V42.9543H6.98085V40.3962H6.04037Z" fill="#F1F1F1"/>
<path d="M12.0752 39.9381H12.6977L13.4421 41.2725H13.4718L14.2161 39.9381H14.8387L13.7318 41.8292V42.9543H13.1821V41.8292L12.0752 39.9381Z" fill="#F1F1F1"/>
<path d="M18.5761 42.9543V39.9381H19.1273V42.4963H20.4675V42.9543H18.5761Z" fill="#F1F1F1"/>
<path d="M24.293 42.9543V39.9381H26.272V40.3962H24.8442V41.215H26.1695V41.673H24.8442V42.4963H26.2839V42.9543H24.293Z" fill="#F1F1F1"/>
<path d="M34.4326 40.3962V39.9381H36.8603V40.3962H35.9198V42.9543H35.3731V40.3962H34.4326Z" fill="#F1F1F1"/>
<path d="M40.6754 42.9543V39.9381H41.2266V41.215H42.6366V39.9381H43.1893V42.9543H42.6366V41.673H41.2266V42.9543H40.6754Z" fill="#F1F1F1"/>
<path d="M47.5266 42.9543H46.9383L48.0095 39.9381H48.6899L49.7627 42.9543H49.1743L48.3616 40.5567H48.3378L47.5266 42.9543ZM47.5459 41.7717H49.1505V42.2106H47.5459V41.7717Z" fill="#F1F1F1"/>
<path d="M53.0091 40.3962V39.9381H55.4368V40.3962H54.4963V42.9543H53.9496V40.3962H53.0091Z" fill="#F1F1F1"/>
<path d="M59.6842 39.9381V40.2386C59.6842 40.325 59.6674 40.4148 59.6337 40.5081C59.601 40.6004 59.556 40.6888 59.4985 40.7732C59.4411 40.8567 59.3757 40.9283 59.3024 40.9882L59.0528 40.8277C59.1073 40.7462 59.1548 40.6583 59.1954 40.5641C59.236 40.4688 59.2563 40.3613 59.2563 40.2415V39.9381H59.6842Z" fill="#F1F1F1"/>
<path d="M65.1474 40.7673C65.1335 40.6387 65.0751 40.5385 64.9721 40.4669C64.8701 40.3952 64.7373 40.3594 64.5739 40.3594C64.459 40.3594 64.3605 40.3765 64.2782 40.4109C64.196 40.4453 64.1331 40.4919 64.0895 40.5508C64.046 40.6097 64.0237 40.677 64.0227 40.7526C64.0227 40.8154 64.0371 40.8699 64.0658 40.9161C64.0955 40.9622 64.1356 41.0015 64.1861 41.0339C64.2366 41.0653 64.2926 41.0918 64.354 41.1134C64.4154 41.135 64.4773 41.1532 64.5397 41.1679L64.825 41.2386C64.9399 41.2651 65.0503 41.3009 65.1563 41.3461C65.2633 41.3913 65.3589 41.4482 65.4431 41.5169C65.5282 41.5857 65.5956 41.6686 65.6451 41.7658C65.6946 41.863 65.7194 41.9769 65.7194 42.1075C65.7194 42.2842 65.6738 42.4399 65.5827 42.5744C65.4916 42.7079 65.3599 42.8125 65.1875 42.8881C65.0162 42.9627 64.8086 43 64.565 43C64.3283 43 64.1227 42.9637 63.9484 42.891C63.7751 42.8184 63.6394 42.7123 63.5413 42.5729C63.4442 42.4335 63.3917 42.2636 63.3838 42.0633H63.9261C63.934 42.1684 63.9667 42.2558 64.0242 42.3255C64.0816 42.3952 64.1564 42.4472 64.2485 42.4816C64.3416 42.516 64.4456 42.5331 64.5605 42.5331C64.6804 42.5331 64.7854 42.5155 64.8755 42.4801C64.9666 42.4438 65.0379 42.3937 65.0895 42.3299C65.141 42.2651 65.1672 42.1895 65.1682 42.1031C65.1672 42.0245 65.1439 41.9597 65.0984 41.9087C65.0528 41.8567 64.9889 41.8135 64.9067 41.7791C64.8255 41.7437 64.7304 41.7123 64.6214 41.6848L64.2753 41.5965C64.0247 41.5326 63.8266 41.4359 63.681 41.3063C63.5364 41.1757 63.464 41.0025 63.464 40.7864C63.464 40.6087 63.5126 40.4531 63.6097 40.3196C63.7077 40.1861 63.8409 40.0825 64.0093 40.0088C64.1777 39.9342 64.3684 39.8969 64.5813 39.8969C64.7973 39.8969 64.9864 39.9342 65.1489 40.0088C65.3123 40.0825 65.4406 40.1851 65.5337 40.3166C65.6268 40.4472 65.6748 40.5974 65.6778 40.7673H65.1474Z" fill="#F1F1F1"/>
<path d="M76.6617 41.4462C76.6617 41.7712 76.6003 42.0496 76.4775 42.2813C76.3556 42.512 76.1892 42.6888 75.9783 42.8115C75.7683 42.9342 75.5301 42.9956 75.2636 42.9956C74.9972 42.9956 74.7585 42.9342 74.5475 42.8115C74.3375 42.6878 74.1711 42.5106 74.0483 42.2798C73.9264 42.0481 73.8655 41.7702 73.8655 41.4462C73.8655 41.1213 73.9264 40.8434 74.0483 40.6127C74.1711 40.381 74.3375 40.2037 74.5475 40.081C74.7585 39.9583 74.9972 39.8969 75.2636 39.8969C75.5301 39.8969 75.7683 39.9583 75.9783 40.081C76.1892 40.2037 76.3556 40.381 76.4775 40.6127C76.6003 40.8434 76.6617 41.1213 76.6617 41.4462ZM76.1075 41.4462C76.1075 41.2175 76.0714 41.0245 75.9991 40.8675C75.9277 40.7094 75.8287 40.5901 75.7019 40.5096C75.5751 40.4281 75.429 40.3873 75.2636 40.3873C75.0982 40.3873 74.9521 40.4281 74.8253 40.5096C74.6985 40.5901 74.599 40.7094 74.5267 40.8675C74.4554 41.0245 74.4197 41.2175 74.4197 41.4462C74.4197 41.675 74.4554 41.8684 74.5267 42.0265C74.599 42.1836 74.6985 42.3029 74.8253 42.3844C74.9521 42.4649 75.0982 42.5052 75.2636 42.5052C75.429 42.5052 75.5751 42.4649 75.7019 42.3844C75.8287 42.3029 75.9277 42.1836 75.9991 42.0265C76.0714 41.8684 76.1075 41.675 76.1075 41.4462Z" fill="#F1F1F1"/>
<path d="M82.448 39.9381H82.9992V41.9087C82.9992 42.1247 82.9477 42.3147 82.8447 42.4786C82.7427 42.6426 82.5991 42.7707 82.4138 42.863C82.2286 42.9543 82.0122 43 81.7646 43C81.5159 43 81.299 42.9543 81.1138 42.863C80.9286 42.7707 80.785 42.6426 80.6829 42.4786C80.5809 42.3147 80.5299 42.1247 80.5299 41.9087V39.9381H81.0811V41.863C81.0811 41.9887 81.1089 42.1006 81.1643 42.1988C81.2208 42.297 81.3 42.3741 81.402 42.43C81.5041 42.485 81.6249 42.5125 81.7646 42.5125C81.9042 42.5125 82.0251 42.485 82.1271 42.43C82.2301 42.3741 82.3093 42.297 82.3648 42.1988C82.4203 42.1006 82.448 41.9887 82.448 41.863V39.9381Z" fill="#F1F1F1"/>
<path d="M86.8117 40.3962V39.9381H89.2394V40.3962H88.2989V42.9543H87.7522V40.3962H86.8117Z" fill="#F1F1F1"/>
<path d="M100.158 41.4462C100.158 41.7712 100.097 42.0496 99.9741 42.2813C99.8523 42.512 99.6858 42.6888 99.4749 42.8115C99.2649 42.9342 99.0267 42.9956 98.7602 42.9956C98.4938 42.9956 98.2551 42.9342 98.0441 42.8115C97.8341 42.6878 97.6677 42.5106 97.5449 42.2798C97.4231 42.0481 97.3621 41.7702 97.3621 41.4462C97.3621 41.1213 97.4231 40.8434 97.5449 40.6127C97.6677 40.381 97.8341 40.2037 98.0441 40.081C98.2551 39.9583 98.4938 39.8969 98.7602 39.8969C99.0267 39.8969 99.2649 39.9583 99.4749 40.081C99.6858 40.2037 99.8523 40.381 99.9741 40.6127C100.097 40.8434 100.158 41.1213 100.158 41.4462ZM99.6041 41.4462C99.6041 41.2175 99.568 41.0245 99.4957 40.8675C99.4244 40.7094 99.3253 40.5901 99.1985 40.5096C99.0717 40.4281 98.9256 40.3873 98.7602 40.3873C98.5948 40.3873 98.4487 40.4281 98.3219 40.5096C98.1951 40.5901 98.0956 40.7094 98.0233 40.8675C97.952 41.0245 97.9163 41.2175 97.9163 41.4462C97.9163 41.675 97.952 41.8684 98.0233 42.0265C98.0956 42.1836 98.1951 42.3029 98.3219 42.3844C98.4487 42.4649 98.5948 42.5052 98.7602 42.5052C98.9256 42.5052 99.0717 42.4649 99.1985 42.3844C99.3253 42.3029 99.4244 42.1836 99.4957 42.0265C99.568 41.8684 99.6041 41.675 99.6041 41.4462Z" fill="#F1F1F1"/>
<path d="M104.027 42.9543V39.9381H105.976V40.3962H104.578V41.215H105.842V41.673H104.578V42.9543H104.027Z" fill="#F1F1F1"/>
<path d="M114.076 40.3962V39.9381H116.504V40.3962H115.563V42.9543H115.017V40.3962H114.076Z" fill="#F1F1F1"/>
<path d="M120.319 42.9543V39.9381H120.87V41.215H122.28V39.9381H122.833V42.9543H122.28V41.673H120.87V42.9543H120.319Z" fill="#F1F1F1"/>
<path d="M127.331 39.9381V42.9543H126.78V39.9381H127.331Z" fill="#F1F1F1"/>
<path d="M132.928 40.7673C132.914 40.6387 132.856 40.5385 132.753 40.4669C132.651 40.3952 132.518 40.3594 132.355 40.3594C132.24 40.3594 132.141 40.3765 132.059 40.4109C131.977 40.4453 131.914 40.4919 131.871 40.5508C131.827 40.6097 131.805 40.677 131.804 40.7526C131.804 40.8154 131.818 40.8699 131.847 40.9161C131.876 40.9622 131.917 41.0015 131.967 41.0339C132.018 41.0653 132.074 41.0918 132.135 41.1134C132.196 41.135 132.258 41.1532 132.321 41.1679L132.606 41.2386C132.721 41.2651 132.831 41.3009 132.937 41.3461C133.044 41.3913 133.14 41.4482 133.224 41.5169C133.309 41.5857 133.377 41.6686 133.426 41.7658C133.476 41.863 133.5 41.9769 133.5 42.1075C133.5 42.2842 133.455 42.4399 133.364 42.5744C133.273 42.7079 133.141 42.8125 132.968 42.8881C132.797 42.9627 132.59 43 132.346 43C132.109 43 131.904 42.9637 131.729 42.891C131.556 42.8184 131.42 42.7123 131.322 42.5729C131.225 42.4335 131.173 42.2636 131.165 42.0633H131.707C131.715 42.1684 131.748 42.2558 131.805 42.3255C131.863 42.3952 131.937 42.4472 132.029 42.4816C132.123 42.516 132.227 42.5331 132.341 42.5331C132.461 42.5331 132.566 42.5155 132.656 42.4801C132.748 42.4438 132.819 42.3937 132.87 42.3299C132.922 42.2651 132.948 42.1895 132.949 42.1031C132.948 42.0245 132.925 41.9597 132.879 41.9087C132.834 41.8567 132.77 41.8135 132.688 41.7791C132.606 41.7437 132.511 41.7123 132.402 41.6848L132.056 41.5965C131.806 41.5326 131.608 41.4359 131.462 41.3063C131.317 41.1757 131.245 41.0025 131.245 40.7864C131.245 40.6087 131.294 40.4531 131.391 40.3196C131.489 40.1861 131.622 40.0825 131.79 40.0088C131.959 39.9342 132.149 39.8969 132.362 39.8969C132.578 39.8969 132.767 39.9342 132.93 40.0088C133.093 40.0825 133.222 40.1851 133.315 40.3166C133.408 40.4472 133.456 40.5974 133.459 40.7673H132.928Z" fill="#F1F1F1"/>
<path d="M142.364 42.9543L141.505 39.9381H142.098L142.646 42.1546H142.675L143.26 39.9381H143.799L144.386 42.1561H144.413L144.961 39.9381H145.554L144.695 42.9543H144.151L143.542 40.838H143.519L142.908 42.9543H142.364Z" fill="#F1F1F1"/>
<path d="M151.839 41.4462C151.839 41.7712 151.777 42.0496 151.655 42.2813C151.533 42.512 151.366 42.6888 151.155 42.8115C150.945 42.9342 150.707 42.9956 150.441 42.9956C150.174 42.9956 149.936 42.9342 149.725 42.8115C149.515 42.6878 149.348 42.5106 149.225 42.2798C149.104 42.0481 149.043 41.7702 149.043 41.4462C149.043 41.1213 149.104 40.8434 149.225 40.6127C149.348 40.381 149.515 40.2037 149.725 40.081C149.936 39.9583 150.174 39.8969 150.441 39.8969C150.707 39.8969 150.945 39.9583 151.155 40.081C151.366 40.2037 151.533 40.381 151.655 40.6127C151.777 40.8434 151.839 41.1213 151.839 41.4462ZM151.285 41.4462C151.285 41.2175 151.248 41.0245 151.176 40.8675C151.105 40.7094 151.006 40.5901 150.879 40.5096C150.752 40.4281 150.606 40.3873 150.441 40.3873C150.275 40.3873 150.129 40.4281 150.002 40.5096C149.876 40.5901 149.776 40.7094 149.704 40.8675C149.632 41.0245 149.597 41.2175 149.597 41.4462C149.597 41.675 149.632 41.8684 149.704 42.0265C149.776 42.1836 149.876 42.3029 150.002 42.3844C150.129 42.4649 150.275 42.5052 150.441 42.5052C150.606 42.5052 150.752 42.4649 150.879 42.3844C151.006 42.3029 151.105 42.1836 151.176 42.0265C151.248 41.8684 151.285 41.675 151.285 41.4462Z" fill="#F1F1F1"/>
<path d="M155.707 42.9543V39.9381H156.848C157.082 39.9381 157.278 39.9784 157.436 40.0589C157.596 40.1394 157.716 40.2523 157.797 40.3976C157.88 40.542 157.921 40.7104 157.921 40.9028C157.921 41.0962 157.879 41.2641 157.796 41.4065C157.714 41.5479 157.592 41.6573 157.432 41.7349C157.271 41.8115 157.074 41.8498 156.841 41.8498H156.028V41.3962H156.766C156.903 41.3962 157.015 41.3775 157.102 41.3402C157.189 41.3019 157.254 41.2464 157.295 41.1738C157.338 41.1001 157.359 41.0098 157.359 40.9028C157.359 40.7958 157.338 40.7045 157.295 40.6289C157.253 40.5523 157.188 40.4944 157.101 40.4551C157.013 40.4148 156.901 40.3947 156.763 40.3947H156.258V42.9543H155.707ZM157.279 41.5876L158.032 42.9543H157.417L156.677 41.5876H157.279Z" fill="#F1F1F1"/>
<path d="M161.775 42.9543V39.9381H162.326V42.4963H163.667V42.9543H161.775Z" fill="#F1F1F1"/>
<path d="M168.523 42.9543H167.492V39.9381H168.544C168.846 39.9381 169.106 39.9985 169.322 40.1193C169.54 40.2391 169.708 40.4114 169.825 40.6362C169.942 40.8611 170 41.1301 170 41.4433C170 41.7575 169.941 42.0275 169.823 42.2533C169.706 42.4791 169.537 42.6524 169.317 42.7732C169.097 42.894 168.832 42.9543 168.523 42.9543ZM168.043 42.4816H168.496C168.708 42.4816 168.885 42.4433 169.027 42.3667C169.168 42.2892 169.275 42.1738 169.346 42.0206C169.418 41.8665 169.453 41.674 169.453 41.4433C169.453 41.2126 169.418 41.0211 169.346 40.8689C169.275 40.7158 169.169 40.6014 169.03 40.5258C168.891 40.4492 168.719 40.4109 168.513 40.4109H168.043V42.4816Z" fill="#F1F1F1"/>
</svg>
